<svg width="65" height="63" viewBox="0 0 65 63" fill="none" xmlns="http://www.w3.org/2000/svg">
<path d="M2.34493 31.2527C4.51926 27.9733 7.0705 28.8392 9.1397 30.7771C9.82431 31.4176 10.1961 31.4753 10.8961 30.7744C12.3422 29.3257 14.0576 28.3664 16.0729 28.0887C18.4473 27.7589 20.1729 28.7924 21.419 30.8816C22.1139 32.0471 22.5113 33.3473 22.9036 34.8537C23.8472 33.317 24.9779 32.1378 26.2574 31.118C26.5061 30.92 26.4625 30.6314 26.4471 30.3675C26.3266 28.2399 26.0292 26.148 25.26 24.1634C23.7985 20.3864 21.1498 18.432 17.3293 18.3138C15.9858 18.2726 14.6422 18.3001 13.3191 17.9702C8.76791 16.8349 5.8859 13.135 5.53976 7.91764C5.47053 6.86208 5.48847 5.79278 5.53719 4.73447C5.58334 3.68991 6.14744 3.13464 6.9705 3.19786C7.78075 3.25834 8.25766 3.91256 8.16536 4.95163C8.03459 6.39753 8.11151 7.82418 8.40125 9.23984C9.14483 12.8518 11.5038 15.0784 14.9524 15.389C16.355 15.5155 17.7806 15.4468 19.1652 15.6777C23.7498 16.4446 26.5164 19.4931 28.0189 24.0342C28.5651 25.689 28.8522 27.4015 29.024 29.2597C30.324 28.7237 31.5496 28.0887 32.8445 27.6407C33.3599 27.462 32.9394 27.0716 32.8214 26.8188C31.7855 24.6169 31.1804 22.3051 31.1163 19.8284C31.0932 18.8746 31.365 18.2093 32.2137 17.7668C33.3368 17.184 33.8932 16.1312 34.0137 14.809C34.1573 13.2119 34.1419 11.6039 34.5265 10.026C35.8701 4.53106 40.0393 0.773376 45.3366 0.143888C48.2879 -0.205216 51.1391 0.0779136 53.9519 1.02627C57.1082 2.44742 59.8056 4.50907 61.8236 7.51356C66.1158 13.9101 66.0517 22.58 61.6697 29.4714C60.1569 31.8519 58.3134 33.8668 56.0185 35.3924C55.7467 35.5739 55.4929 35.7085 55.5108 36.1566C55.7467 42.2398 53.1339 47.0283 49.393 51.2533C43.8366 57.5289 36.8573 60.9128 29.0266 62.4796C25.8241 63.1201 22.5959 63.2548 19.4011 62.3944C14.5499 61.0887 12.0602 57.474 11.114 52.4436C10.7525 50.5249 10.6217 48.5704 10.832 46.616C10.9038 45.9508 10.7499 45.7968 10.1397 45.8518C8.11664 46.036 6.1141 45.9288 4.16029 45.2471C0.891103 44.1063 -0.567851 41.4069 0.201368 37.8197C0.691105 35.5436 1.28853 33.3115 2.34493 31.2527ZM38.4495 34.051C37.1162 32.8717 35.9521 31.6567 34.947 30.2796C34.706 29.9497 34.4752 30.0652 34.1906 30.1531C31.8291 30.8678 29.6368 31.9646 27.6753 33.5452C26.2497 34.6942 25.0497 36.0549 24.5215 37.9544C23.8933 40.2194 24.4292 41.6406 26.3651 42.7484C27.7958 43.5675 29.3625 43.9221 30.9471 44.1723C34.647 44.755 38.3547 44.6561 42.0649 44.307C43.129 44.208 43.7546 44.6451 43.8161 45.5439C43.8777 46.4208 43.3854 46.9706 42.3854 47.0723C41.2393 47.1878 40.088 47.3197 38.9367 47.3444C33.5547 47.4571 28.1676 47.5588 23.3933 44.0925C23.1446 45.6347 22.9857 47.1768 22.3652 48.5842C22.0421 49.3126 21.4959 49.6865 20.719 49.4143C20.0011 49.1642 19.6549 48.4165 19.9395 47.5863C21.0677 44.307 21.0447 40.9341 20.6729 37.5448C20.4754 35.7388 20.1036 33.963 19.1883 32.3824C18.378 30.9805 17.5293 30.6122 16.0293 30.9393C14.4627 31.2801 13.2114 32.2065 12.0833 33.35C10.6269 34.8262 9.52688 36.5827 8.56279 38.4547C8.13715 39.2793 7.34486 39.5432 6.70128 39.1061C5.98334 38.6168 5.87565 37.9049 6.26282 37.1407C6.68846 36.2996 7.08332 35.4117 7.65254 34.6887C8.34484 33.8146 8.14997 33.2923 7.32947 32.7975C7.21922 32.7315 7.12691 32.6298 7.02179 32.5501C5.67052 31.533 5.1013 31.676 4.33977 33.2813C3.5526 34.9416 3.12953 36.7339 2.76031 38.5426C2.34237 40.5933 2.98851 41.844 4.84233 42.5285C6.47308 43.1332 8.16792 43.125 9.87302 43.103C10.9063 43.0892 11.4268 42.6879 11.4909 41.5554C11.5217 41.0193 11.7115 40.4888 11.8474 39.961C12.1602 38.7598 12.7422 38.298 13.5807 38.5646C14.3832 38.8203 14.6473 39.5075 14.3807 40.6372C13.5653 44.1173 13.155 47.6193 13.573 51.2176C14.0909 55.6845 16.4345 58.7329 20.2626 59.7225C21.4498 60.0304 22.6652 60.2173 23.8805 60.1623C33.2291 59.739 41.3418 56.2452 47.8315 48.8948C50.5904 45.7693 52.5545 42.1684 52.9032 37.7537C52.9468 37.1929 52.9416 36.7614 52.4314 36.3408C51.6955 35.7333 51.8596 34.6392 52.6698 34.106C52.9416 33.9273 53.2442 33.8063 53.5314 33.6552C59.5236 30.494 63.3517 22.4371 62.18 15.4523C60.8108 7.29091 53.6955 1.80419 46.0033 2.8735C41.5803 3.48924 38.4931 5.76529 37.147 10.4356C36.7573 11.7908 36.7111 13.1954 36.6573 14.6001C36.5829 16.571 35.947 18.3111 34.4291 19.5096C33.7932 20.0126 33.7394 20.5266 33.8496 21.2523C34.2958 24.1799 35.565 26.6758 37.3137 28.9189C38.7393 30.7496 40.4111 32.2807 42.3341 33.4957C42.8649 33.8311 43.2341 34.3066 43.1238 35.0048C43.0264 35.6261 42.6905 36.0934 42.0649 36.1703C39.4572 36.4975 37.0444 37.4568 34.6983 38.6801C33.9599 39.0649 33.2265 38.746 32.9317 38.0011C32.6163 37.2012 32.9035 36.6047 33.5573 36.1786C33.8035 36.0192 34.0676 35.8927 34.3265 35.7608C35.6342 35.1065 36.9829 34.5843 38.4495 34.051Z" fill="#EC407A"/>
</svg>
