<svg width="101" height="100" viewBox="0 0 101 100" fill="none" xmlns="http://www.w3.org/2000/svg">
<path d="M24.5 0H100.5V76C100.5 89.255 89.755 100 76.5 100H0.5V24C0.5 10.745 11.245 0 24.5 0Z" fill="#EC407A"/>
<path d="M57.7886 61.3166C61.4911 59.0161 63.431 54.524 62.7719 49.5934C62.0169 43.9571 58.2081 39.5783 52.9878 38.2689L51.0185 32.3601C50.9275 32.0882 50.7323 31.8634 50.4758 31.7351C50.2193 31.6069 49.9224 31.5856 49.6503 31.676C49.3784 31.7672 49.1538 31.9624 49.0256 32.2188C48.8974 32.4753 48.876 32.7721 48.9662 33.0442L51.1283 39.5307C51.2528 39.8983 51.5625 40.1724 51.9421 40.2485C57.5499 41.3703 60.1255 46.1383 60.6271 49.8797C61.2109 54.2351 59.3921 58.1451 55.9949 59.8437C55.7623 59.9607 55.5795 60.1574 55.4799 60.398C55.3804 60.6385 55.3707 60.9069 55.4526 61.154L57.1417 66.2169H40.3763L42.3664 46.3156L51.6714 50.9676C51.9279 51.0955 52.2245 51.1164 52.4963 51.026C52.7682 50.9355 52.9931 50.741 53.1218 50.4851C53.1854 50.358 53.2233 50.2196 53.2334 50.0779C53.2435 49.9361 53.2255 49.7938 53.1805 49.659C53.1355 49.5242 53.0644 49.3997 52.9712 49.2924C52.8781 49.1851 52.7646 49.0972 52.6375 49.0338L40.3608 42.8959L42.4131 28.5323C42.4166 28.5055 42.407 28.4812 42.4088 28.4553C42.4105 28.4293 42.4243 28.406 42.4243 28.3792C42.4243 28.3307 42.4027 28.2892 42.3967 28.2425C42.3896 28.1709 42.3754 28.1003 42.3543 28.0315C42.3311 27.9674 42.3012 27.906 42.2652 27.8482C42.2306 27.7876 42.196 27.7314 42.151 27.6786C42.1047 27.6281 42.0538 27.5821 41.9988 27.5411C41.9466 27.4978 41.8901 27.4598 41.8302 27.4278C41.7649 27.3965 41.6965 27.3721 41.6261 27.3552C41.5811 27.3431 41.543 27.3163 41.4963 27.3093C41.4695 27.3059 41.4453 27.3154 41.4194 27.3137C41.3934 27.3119 41.3709 27.2981 41.3441 27.2981H40.263V17.5675C40.263 13.8296 41.9305 12.1622 45.6684 12.1622C48.7612 12.1622 50.612 14.9098 51.0738 15.6865V21.4439L47.0661 25.4516C46.9657 25.5521 46.886 25.6714 46.8317 25.8027C46.7774 25.934 46.7495 26.0747 46.7496 26.2168C46.7497 26.3588 46.7778 26.4995 46.8322 26.6307C46.8866 26.7619 46.9664 26.8812 47.0669 26.9816C47.1674 27.082 47.2867 27.1616 47.418 27.2159C47.5493 27.2702 47.69 27.2981 47.8321 27.298C47.9741 27.2979 48.1148 27.2699 48.246 27.2154C48.3772 27.161 48.4965 27.0812 48.5969 26.9807L52.9212 22.6564C53.1218 22.454 53.236 22.179 53.236 21.8919V15.4054C53.236 15.2376 53.1971 15.0724 53.1218 14.9219C53.0215 14.7204 50.6042 10 45.6684 10C40.718 10 38.1009 12.6171 38.1009 17.5675V28.3783C38.1009 28.9751 38.5852 29.4594 39.182 29.4594H40.0979L38.1121 43.3603C38.1104 43.375 38.1156 43.3871 38.1147 43.4018C38.1061 43.4805 38.1191 43.5558 38.1277 43.6336C38.1346 43.6976 38.1338 43.7608 38.1519 43.8213C38.1718 43.8879 38.209 43.9441 38.241 44.0055C38.2739 44.0678 38.2989 44.1309 38.3431 44.1854C38.382 44.2347 38.4356 44.2702 38.484 44.3125C38.542 44.3636 38.5965 44.4163 38.6648 44.4544C38.6778 44.4613 38.6847 44.4734 38.6985 44.4803L40.3495 45.3063C40.3175 45.3919 40.2786 45.4732 40.2691 45.5683L38.1069 67.1899C38.0917 67.3401 38.1082 67.4919 38.1553 67.6354C38.2023 67.7789 38.279 67.9109 38.3804 68.0229C38.4817 68.1349 38.6054 68.2244 38.7435 68.2856C38.8815 68.3468 39.0309 68.3784 39.182 68.3782H42.5281L44.5925 89.0268C44.6067 89.168 44.6485 89.3051 44.7156 89.4301C44.7827 89.5552 44.8738 89.6658 44.9837 89.7557C45.2056 89.9372 45.4904 90.0231 45.7757 89.9946C45.9169 89.9804 46.054 89.9386 46.179 89.8715C46.3041 89.8044 46.4147 89.7133 46.5046 89.6034C46.5945 89.4936 46.6618 89.3671 46.7028 89.2312C46.7438 89.0953 46.7576 88.9526 46.7435 88.8114L44.7007 68.3782H50.9605L48.9169 88.8106C48.9027 88.9518 48.9165 89.0944 48.9575 89.2303C48.9985 89.3662 49.0658 89.4927 49.1557 89.6026C49.2456 89.7124 49.3562 89.8035 49.4813 89.8706C49.6063 89.9377 49.7434 89.9795 49.8846 89.9937C50.0259 90.0078 50.1685 89.994 50.3044 89.953C50.4403 89.912 50.5668 89.8447 50.6766 89.7548C50.7865 89.665 50.8776 89.5543 50.9447 89.4293C51.0118 89.3042 51.0536 89.1671 51.0678 89.0259L53.1322 68.3773H58.6414C58.8126 68.377 58.9813 68.3361 59.1337 68.2579C59.2861 68.1797 59.4177 68.0665 59.5178 67.9275C59.6179 67.7886 59.6837 67.6279 59.7096 67.4586C59.7356 67.2893 59.721 67.1163 59.6671 66.9538L57.7886 61.3166ZM44.7015 40.8678C44.5733 41.1242 44.5522 41.4211 44.6429 41.6931C44.7335 41.9651 44.9285 42.1899 45.185 42.3182L49.5093 44.4803C49.7658 44.6083 50.0626 44.6293 50.3345 44.5386C50.6064 44.448 50.8313 44.2531 50.9597 43.9969C51.0232 43.8699 51.0611 43.7316 51.0712 43.5899C51.0812 43.4482 51.0633 43.3059 51.0183 43.1712C50.9733 43.0365 50.9022 42.912 50.809 42.8048C50.7159 42.6976 50.6025 42.6098 50.4753 42.5465L46.151 40.3843C45.8947 40.2564 45.598 40.2354 45.3262 40.3261C45.0544 40.4167 44.8297 40.6116 44.7015 40.8678Z" fill="white"/>
</svg>
