<svg width="150" height="149" viewBox="0 0 150 149" fill="none" xmlns="http://www.w3.org/2000/svg">
<path d="M124.885 22.0822C114.091 11.71 100.346 4.97387 85.5751 2.78083C84.325 2.59523 83.1882 3.4984 83.0424 4.75374V4.75374C82.8966 6.00908 83.797 7.14097 85.0467 7.32926C98.8239 9.40517 111.641 15.703 121.714 25.3823C132.339 35.5908 139.327 48.9985 141.609 63.5547C143.892 78.1109 141.344 93.014 134.354 105.985C127.364 118.955 116.318 129.279 102.906 135.378C89.4927 141.476 74.4515 143.012 60.0826 139.753C45.7137 136.493 32.8082 128.616 23.3401 117.326C13.872 106.037 8.36253 91.9572 7.65446 77.2402C6.98309 63.2862 10.6632 49.4879 18.156 37.7414C18.8356 36.676 18.5747 35.2533 17.5329 34.5379V34.5379C16.4911 33.8225 15.0631 34.0855 14.3812 35.1495C6.32355 47.7215 2.36376 62.5071 3.08319 77.4601C3.83933 93.1761 9.72276 108.212 19.8336 120.267C29.9443 132.323 43.7259 140.734 59.0701 144.216C74.4143 147.697 90.4765 146.056 104.8 139.544C119.123 133.032 130.919 122.007 138.383 108.156C145.847 94.3047 148.568 78.3899 146.131 62.8457C143.693 47.3015 136.231 32.9837 124.885 22.0822Z" stroke="#EC407A" stroke-width="5" stroke-linecap="round" stroke-linejoin="round"/>
</svg>
