<svg width="12" height="12" viewBox="0 0 12 12" fill="none" xmlns="http://www.w3.org/2000/svg">
<g clip-path="url(#clip0_568_462)">
<path d="M10.95 4.19922L4.8 10.3492C5.175 10.4242 5.625 10.4992 6 10.4992C8.7 10.4992 10.8 8.17422 11.7 6.82422C12.075 6.29922 12.075 5.62422 11.7 5.09922C11.55 4.87422 11.25 4.57422 10.95 4.19922Z" fill="#8C8A8A"/>
<path d="M10.725 0.225L8.7 2.25C7.875 1.8 6.975 1.5 6 1.5C3.3 1.5 1.2 3.825 0.3 5.175C-0.075 5.7 -0.075 6.375 0.3 6.825C0.675 7.425 1.35 8.175 2.1 8.85L0.225 10.725C-0.075 11.025 -0.075 11.475 0.225 11.775C0.375 11.925 0.525 12 0.75 12C0.975 12 1.125 11.925 1.275 11.775L11.775 1.275C12.075 0.975 12.075 0.525 11.775 0.225C11.475 -0.075 11.025 -0.075 10.725 0.225ZM3.975 6.975C3.825 6.675 3.75 6.375 3.75 6C3.75 4.725 4.725 3.75 6 3.75C6.375 3.75 6.675 3.825 6.975 3.975L3.975 6.975Z" fill="#8C8A8A"/>
</g>
<defs>
<clipPath id="clip0_568_462">
<rect width="12" height="12" fill="white"/>
</clipPath>
</defs>
</svg>
