<svg width="12" height="12" viewBox="0 0 12 12" fill="none" xmlns="http://www.w3.org/2000/svg">
<path fill-rule="evenodd" clip-rule="evenodd" d="M6 1C4.61929 1 3.5 2.11929 3.5 3.5C3.5 4.88071 4.61929 6 6 6C7.38071 6 8.5 4.88071 8.5 3.5C8.5 2.11929 7.38071 1 6 1ZM4.5 3.5C4.5 2.67157 5.17157 2 6 2C6.82843 2 7.5 2.67157 7.5 3.5C7.5 4.32843 6.82843 5 6 5C5.17157 5 4.5 4.32843 4.5 3.5Z" fill="#8C8A8A"/>
<path fill-rule="evenodd" clip-rule="evenodd" d="M6 6.75C3.7751 6.75 2.53845 7.50268 1.96656 8.00464C1.61361 8.31442 1.5 8.74979 1.5 9.12233C1.5 10.1593 2.34066 11 3.37767 11H8.62233C9.65934 11 10.5 10.1593 10.5 9.12233C10.5 8.74979 10.3864 8.31442 10.0334 8.00464C9.46155 7.50268 8.2249 6.75 6 6.75ZM2.62622 8.7562C3.01967 8.41086 4.02313 7.75 6 7.75C7.97687 7.75 8.98033 8.41086 9.37378 8.7562C9.44279 8.81677 9.5 8.93342 9.5 9.12233C9.5 9.60705 9.10705 10 8.62233 10H3.37767C2.89295 10 2.5 9.60705 2.5 9.12233C2.5 8.93342 2.55721 8.81677 2.62622 8.7562Z" fill="#8C8A8A"/>
</svg>
